<?xml version="1.0" encoding="UTF-8" standalone="no"?><!DOCTYPE svg PUBLIC "-//W3C//DTD SVG 1.1//EN" "http://www.w3.org/Graphics/SVG/1.1/DTD/svg11.dtd"><svg width="100%" height="100%" viewBox="0 0 4000 2000" version="1.1" xmlns="http://www.w3.org/2000/svg" xmlns:xlink="http://www.w3.org/1999/xlink" xml:space="preserve" xmlns:serif="http://www.serif.com/" style="fill-rule:evenodd;clip-rule:evenodd;stroke-linejoin:round;stroke-miterlimit:1.5;"><g id="Complete-Diagram" serif:id="Complete Diagram"><g id="Comparison-Graph" serif:id="Comparison Graph"><g id="Position-Bar" serif:id="Position Bar"><path d="M716.909,1820.7l3000,0" style="fill:none;stroke:#000;stroke-width:4.17px;"/><path d="M3716.91,1805l0,40" style="fill:none;stroke:#000;stroke-width:4.17px;"/><path d="M716.909,1845l0,-40" style="fill:none;stroke:#000;stroke-width:4.17px;"/><path d="M1216.91,1820.7l0,24.303" style="fill:none;stroke:#000;stroke-width:4.17px;"/><path d="M1716.91,1820.7l0,24.303" style="fill:none;stroke:#000;stroke-width:4.17px;"/><path d="M2216.91,1820.7l0,24.303" style="fill:none;stroke:#000;stroke-width:4.17px;"/><path d="M2716.91,1820.7l0,24.303" style="fill:none;stroke:#000;stroke-width:4.17px;"/><path d="M3216.91,1820.7l0,24.303" style="fill:none;stroke:#000;stroke-width:4.17px;"/><text x="704.005px" y="1900.82px" style="font-family:'ArialMT', 'Arial', sans-serif;font-size:50px;">0</text><text x="1162.29px" y="1900.82px" style="font-family:'ArialMT', 'Arial', sans-serif;font-size:50px;">5000</text><text x="1648.39px" y="1900.82px" style="font-family:'ArialMT', 'Arial', sans-serif;font-size:50px;">10000</text><text x="2148.39px" y="1900.82px" style="font-family:'ArialMT', 'Arial', sans-serif;font-size:50px;">15000</text><text x="2648.39px" y="1900.82px" style="font-family:'ArialMT', 'Arial', sans-serif;font-size:50px;">20000</text><text x="3148.39px" y="1900.82px" style="font-family:'ArialMT', 'Arial', sans-serif;font-size:50px;">25000</text><text x="3648.39px" y="1900.82px" style="font-family:'ArialMT', 'Arial', sans-serif;font-size:50px;">30000</text></g><path d="M3975.91,1525l-3450,0" style="fill:none;stroke:#000;stroke-width:4.17px;"/><path d="M3975.91,925l-3450,0" style="fill:none;stroke:#000;stroke-width:4.17px;"/><path d="M3977.91,325l-3450,0" style="fill:none;stroke:#000;stroke-width:4.17px;"/><g id="RaTG13-Gene" serif:id="RaTG13 Gene"><path id="Sample-Gene" serif:id="Sample Gene" d="M2062.91,1525l-50,-50l-1240,0c-16.557,0 -30,13.443 -30,30l0,40c0,16.557 13.443,30 30,30l1240,0l50,-50Z" style="fill:#a7efcf;stroke:#000;stroke-width:4.17px;"/><path id="Sample-Gene1" serif:id="Sample Gene" d="M2871.91,1525l-50,-50l-729,0c-16.557,0 -30,13.443 -30,30l0,40c0,16.557 13.443,30 30,30l729,0l50,-50Z" style="fill:#a8f0d0;stroke:#000;stroke-width:4.17px;"/><path id="Sample-Gene2" serif:id="Sample Gene" d="M3252.91,1525l-50,-50l-301,0c-16.557,0 -30,13.443 -30,30l0,40c0,16.557 13.443,30 30,30l301,0l50,-50Z" style="fill:#ec7d7d;stroke:#000;stroke-width:4.17px;"/><path id="Sample-Gene3" serif:id="Sample Gene" d="M3337.41,1525l-50,-50l-3,0c-16.557,0 -30,13.443 -30,30l0,40c0,16.557 13.443,30 30,30l3,0l50,-50Z" style="fill:#5a80cb;stroke:#000;stroke-width:4.17px;"/><path id="Sample-Triangle" serif:id="Sample Triangle" d="M3365.91,1525l-23,-50l0,100l23,-50Z" style="fill:#ec7d7d;stroke:#000;stroke-width:4.17px;"/><path id="Sample-Gene4" serif:id="Sample Gene" d="M3436.41,1518.75l-43.75,-43.75c-14.488,0 -26.25,11.762 -26.25,26.25l0,47.5c0,14.488 11.762,26.25 26.25,26.25l43.75,-43.75l0,-12.5Z" style="fill:#ec7d7d;stroke:#000;stroke-width:4.17px;"/><path id="Sample-Triangle1" serif:id="Sample Triangle" d="M3455.91,1525l-19,-50l0,100l19,-50Z" style="fill:#5a80cb;stroke:#000;stroke-width:4.17px;"/><path id="Sample-Triangle2" serif:id="Sample Triangle" d="M3494.91,1525l-36,-50l0,100l36,-50Z" style="fill:#5a80cb;stroke:#000;stroke-width:4.17px;"/><path id="Sample-Triangle3" serif:id="Sample Triangle" d="M3540.91,1525l-36,-50l0,100l36,-50Z" style="fill:#5a80cb;stroke:#000;stroke-width:4.17px;"/><path id="Sample-Gene5" serif:id="Sample Gene" d="M3668.91,1525l-50,-50l-46,0c-16.557,0 -30,13.443 -30,30l0,40c0,16.557 13.443,30 30,30l46,0l50,-50Z" style="fill:#ec7d7d;stroke:#000;stroke-width:4.17px;"/><path id="Sample-Triangle4" serif:id="Sample Triangle" d="M3683.91,1525l-12,-50l0,100l12,-50Z" style="fill:#5a80cb;stroke:#000;stroke-width:4.17px;"/></g><g id="RaTG13-Identity-Bar" serif:id="RaTG13 Identity Bar"><rect x="1017.91" y="1172.15" width="2400" height="100" style="fill:none;stroke:#000;stroke-width:4.17px;"/><path d="M1217.91,1272.15l0,-100" style="fill:none;stroke:#000;stroke-width:4.17px;"/><path d="M1417.91,1275l0,-102.848" style="fill:none;stroke:#000;stroke-width:4.17px;"/><path d="M1617.91,1272.15l0,-100" style="fill:none;stroke:#000;stroke-width:4.17px;"/><path d="M1817.91,1272.15l0,-100" style="fill:none;stroke:#000;stroke-width:4.17px;"/><path d="M2017.91,1272.15l0,-100" style="fill:none;stroke:#000;stroke-width:4.17px;"/><path d="M2217.91,1275l0,-102.848" style="fill:none;stroke:#000;stroke-width:4.17px;"/><path d="M2417.91,1272.15l0,-100" style="fill:none;stroke:#000;stroke-width:4.17px;"/><path d="M2617.91,1272.15l0,-100" style="fill:none;stroke:#000;stroke-width:4.17px;"/><path d="M2817.91,1272.15l0,-100" style="fill:none;stroke:#000;stroke-width:4.17px;"/><path d="M3017.91,1272.15l0,-100" style="fill:none;stroke:#000;stroke-width:4.17px;"/><path d="M3217.91,1272.15l0,-100" style="fill:none;stroke:#000;stroke-width:4.17px;"/><text x="1090.1px" y="1140.08px" style="font-family:'Helvetica';font-size:50px;">1a</text><text x="1290.1px" y="1140.08px" style="font-family:'Helvetica';font-size:50px;">1b</text><text x="1501.23px" y="1140.08px" style="font-family:'Helvetica';font-size:50px;">S</text><text x="1690.1px" y="1140.08px" style="font-family:'Helvetica';font-size:50px;">3a</text><text x="1901.23px" y="1140.08px" style="font-family:'Helvetica';font-size:50px;">E</text><text x="2097.08px" y="1140.08px" style="font-family:'Helvetica';font-size:50px;">M</text><text x="2304.01px" y="1140.08px" style="font-family:'Helvetica';font-size:50px;">6</text><text x="2490.1px" y="1140.08px" style="font-family:'Helvetica';font-size:50px;">7a</text><text x="2704.01px" y="1140.08px" style="font-family:'Helvetica';font-size:50px;">8</text><text x="2899.86px" y="1140.08px" style="font-family:'Helvetica';font-size:50px;">N</text><text x="3090.1px" y="1140.08px" style="font-family:'Helvetica';font-size:50px;">10</text><text x="3231.75px" y="1140.14px" style="font-family:'Helvetica-Bold', 'Helvetica';font-weight:700;font-size:50px;">Mean %</text><g transform="matrix(1,0,0,1,597.909,471.835)"><text x="2937.87px" y="741.984px" style="font-family:'Helvetica-Bold', 'Helvetica';font-weight:700;font-size:58.333px;fill:#491e6f;">AA</text><text x="2848.69px" y="800.317px" style="font-family:'Helvetica-Bold', 'Helvetica';font-weight:700;font-size:58.333px;fill:#491e6f;">Similarity</text></g><text x="1040.18px" y="1238.59px" style="font-family:'Helvetica';font-size:45.833px;">95.03%</text><text x="1240.18px" y="1238.59px" style="font-family:'Helvetica';font-size:45.833px;">98.88%</text><text x="1440.18px" y="1238.59px" style="font-family:'Helvetica';font-size:45.833px;">89.28%</text><text x="1640.18px" y="1238.59px" style="font-family:'Helvetica';font-size:45.833px;">97.09%</text><text x="1859.3px" y="1238.59px" style="font-family:'Helvetica';font-size:45.833px;">100%</text><text x="2040.18px" y="1238.59px" style="font-family:'Helvetica';font-size:45.833px;">99.09%</text><text x="2240.18px" y="1238.59px" style="font-family:'Helvetica';font-size:45.833px;">96.72%</text><text x="2440.18px" y="1238.59px" style="font-family:'Helvetica';font-size:45.833px;">97.04%</text><text x="2640.18px" y="1238.59px" style="font-family:'Helvetica';font-size:45.833px;">84.30%</text><text x="2840.18px" y="1238.59px" style="font-family:'Helvetica';font-size:45.833px;">97.85%</text><text x="3040.18px" y="1238.59px" style="font-family:'Helvetica';font-size:45.833px;">94.74%</text><text x="3233.12px" y="1240.14px" style="font-family:'Helvetica-Bold', 'Helvetica';font-weight:700;font-size:50px;fill:#e00c0b;">87.50%</text></g><g id="Pangolin-Gene" serif:id="Pangolin Gene"><path id="Sample-Gene6" serif:id="Sample Gene" d="M2050.91,925l-50,-50l-1238,0c-16.557,0 -30,13.443 -30,30l0,40c0,16.557 13.443,30 30,30l1238,0l50,-50Z" style="fill:#a7efcf;stroke:#000;stroke-width:4.17px;"/><path id="Sample-Gene7" serif:id="Sample Gene" d="M2861.91,925l-50,-50l-729,0c-16.557,0 -30,13.443 -30,30l0,40c0,16.557 13.443,30 30,30l729,0l50,-50Z" style="fill:#a8f0d0;stroke:#000;stroke-width:4.17px;"/><path id="Sample-Gene8" serif:id="Sample Gene" d="M3240.91,925l-50,-50l-300,0c-16.557,0 -30,13.443 -30,30l0,40c0,16.557 13.443,30 30,30l300,0l50,-50Z" style="fill:#ec7d7d;stroke:#000;stroke-width:4.17px;"/><path id="Sample-Gene9" serif:id="Sample Gene" d="M3326.91,925l-50,-50l-2,0c-16.557,0 -30,13.443 -30,30l0,40c0,16.557 13.443,30 30,30l2,0l50,-50Z" style="fill:#5a80cb;stroke:#000;stroke-width:4.17px;"/><path id="Sample-Triangle5" serif:id="Sample Triangle" d="M3352.91,925l-23,-50l0,100l23,-50Z" style="fill:#ec7d7d;stroke:#000;stroke-width:4.17px;"/><path id="Sample-Gene10" serif:id="Sample Gene" d="M3420.91,916.875l-41.875,-41.875c-13.867,0 -25.125,11.258 -25.125,25.125l0,49.75c0,13.867 11.258,25.125 25.125,25.125l41.875,-41.875l0,-16.25Z" style="fill:#ec7d7d;stroke:#000;stroke-width:4.17px;"/><path id="Sample-Triangle6" serif:id="Sample Triangle" d="M3439.91,925l-19,-50l0,100l19,-50Z" style="fill:#5a80cb;stroke:#000;stroke-width:4.17px;"/><path id="Sample-Triangle7" serif:id="Sample Triangle" d="M3477.91,925l-37,-50l0,100l37,-50Z" style="fill:#5a80cb;stroke:#000;stroke-width:4.17px;"/><path id="Sample-Triangle8" serif:id="Sample Triangle" d="M3521.91,925l-32,-50l0,100l32,-50Z" style="fill:#5a80cb;stroke:#000;stroke-width:4.17px;"/><path id="Sample-Gene11" serif:id="Sample Gene" d="M3649.91,925l-50,-50l-46,0c-16.557,0 -30,13.443 -30,30l0,40c0,16.557 13.443,30 30,30l46,0l50,-50Z" style="fill:#ec7d7d;stroke:#000;stroke-width:4.17px;"/><path id="Sample-Triangle9" serif:id="Sample Triangle" d="M3663.91,925l-12,-50l0,100l12,-50Z" style="fill:#5a80cb;stroke:#000;stroke-width:4.17px;"/></g><g id="SARS-CoV-2-Identity-Bar" serif:id="SARS-CoV-2 Identity Bar"><rect x="1017.91" y="575" width="2400" height="100" style="fill:none;stroke:#000;stroke-width:4.17px;"/><path d="M1217.91,675l0,-100" style="fill:none;stroke:#000;stroke-width:4.17px;"/><path d="M1417.91,677.848l0,-102.848" style="fill:none;stroke:#000;stroke-width:4.17px;"/><path d="M1617.91,675l0,-100" style="fill:none;stroke:#000;stroke-width:4.17px;"/><path d="M1817.91,675l0,-100" style="fill:none;stroke:#000;stroke-width:4.17px;"/><path d="M2017.91,675l0,-100" style="fill:none;stroke:#000;stroke-width:4.17px;"/><path d="M2217.91,677.848l0,-102.848" style="fill:none;stroke:#000;stroke-width:4.17px;"/><path d="M2417.91,675l0,-100" style="fill:none;stroke:#000;stroke-width:4.17px;"/><path d="M2617.91,675l0,-100" style="fill:none;stroke:#000;stroke-width:4.17px;"/><path d="M2817.91,675l0,-100" style="fill:none;stroke:#000;stroke-width:4.17px;"/><path d="M3017.91,675l0,-100" style="fill:none;stroke:#000;stroke-width:4.17px;"/><path d="M3217.91,675l0,-100" style="fill:none;stroke:#000;stroke-width:4.17px;"/><text x="1090.1px" y="542.932px" style="font-family:'Helvetica';font-size:50px;">1a</text><text x="1290.1px" y="542.932px" style="font-family:'Helvetica';font-size:50px;">1b</text><text x="1501.23px" y="542.932px" style="font-family:'Helvetica';font-size:50px;">S</text><text x="1690.1px" y="542.932px" style="font-family:'Helvetica';font-size:50px;">3a</text><text x="1901.23px" y="542.932px" style="font-family:'Helvetica';font-size:50px;">E</text><text x="2097.08px" y="542.932px" style="font-family:'Helvetica';font-size:50px;">M</text><text x="2304.01px" y="542.932px" style="font-family:'Helvetica';font-size:50px;">6</text><text x="2490.1px" y="542.932px" style="font-family:'Helvetica';font-size:50px;">7a</text><text x="2704.01px" y="542.932px" style="font-family:'Helvetica';font-size:50px;">8</text><text x="2899.86px" y="542.932px" style="font-family:'Helvetica';font-size:50px;">N</text><text x="3090.1px" y="542.932px" style="font-family:'Helvetica';font-size:50px;">10</text><text x="3231.75px" y="542.993px" style="font-family:'Helvetica-Bold', 'Helvetica';font-weight:700;font-size:50px;">Mean %</text><g transform="matrix(1,0,0,1,597.909,-125.317)"><text x="2937.87px" y="741.984px" style="font-family:'Helvetica-Bold', 'Helvetica';font-weight:700;font-size:58.333px;fill:#491e6f;">AA</text><text x="2848.69px" y="800.317px" style="font-family:'Helvetica-Bold', 'Helvetica';font-weight:700;font-size:58.333px;fill:#491e6f;">Similarity</text></g><text x="1040.18px" y="641.438px" style="font-family:'Helvetica';font-size:45.833px;">95.12%</text><text x="1240.18px" y="641.438px" style="font-family:'Helvetica';font-size:45.833px;">99.27%</text><text x="1440.18px" y="641.438px" style="font-family:'Helvetica';font-size:45.833px;">90.02%</text><text x="1640.18px" y="641.438px" style="font-family:'Helvetica';font-size:45.833px;">97.09%</text><text x="1859.3px" y="641.438px" style="font-family:'Helvetica';font-size:45.833px;">100%</text><text x="2040.18px" y="641.438px" style="font-family:'Helvetica';font-size:45.833px;">98.20%</text><text x="2240.18px" y="641.438px" style="font-family:'Helvetica';font-size:45.833px;">96.72%</text><text x="2440.18px" y="641.438px" style="font-family:'Helvetica';font-size:45.833px;">97.52%</text><text x="2640.18px" y="641.438px" style="font-family:'Helvetica';font-size:45.833px;">81.82%</text><text x="2840.18px" y="641.438px" style="font-family:'Helvetica';font-size:45.833px;">97.85%</text><text x="3040.18px" y="641.438px" style="font-family:'Helvetica';font-size:45.833px;">97.37%</text><text x="3233.12px" y="642.993px" style="font-family:'Helvetica-Bold', 'Helvetica';font-weight:700;font-size:50px;fill:#e00c0b;">87.58%</text></g><g id="SARS-CoV-2-Gene" serif:id="SARS-CoV-2 Gene"><path id="Sample-Gene12" serif:id="Sample Gene" d="M2064.91,325l-50,-50l-1240,0c-16.557,0 -30,13.443 -30,30l0,40c0,16.557 13.443,30 30,30l1240,0l50,-50Z" style="fill:#a7efcf;stroke:#000;stroke-width:4.17px;"/><path id="Sample-Gene13" serif:id="Sample Gene" d="M2873.91,325l-50,-50l-729,0c-16.557,0 -30,13.443 -30,30l0,40c0,16.557 13.443,30 30,30l729,0l50,-50Z" style="fill:#a8f0d0;stroke:#000;stroke-width:4.17px;"/><path id="Sample-Gene14" serif:id="Sample Gene" d="M3255.91,325l-50,-50l-302,0c-16.557,0 -30,13.443 -30,30l0,40c0,16.557 13.443,30 30,30l302,0l50,-50Z" style="fill:#ec7d7d;stroke:#000;stroke-width:4.17px;"/><path id="Sample-Gene15" serif:id="Sample Gene" d="M3338.91,325l-50,-50l-2,0c-16.557,0 -30,13.443 -30,30l0,40c0,16.557 13.443,30 30,30l2,0l50,-50Z" style="fill:#5a80cb;stroke:#000;stroke-width:4.17px;"/><path id="Sample-Triangle10" serif:id="Sample Triangle" d="M3364.91,325l-23,-50l0,100l23,-50Z" style="fill:#ec7d7d;stroke:#000;stroke-width:4.17px;"/><path id="Sample-Gene16" serif:id="Sample Gene" d="M3438.41,318.75l-43.75,-43.75c-14.488,0 -26.25,11.762 -26.25,26.25l0,47.5c0,14.488 11.762,26.25 26.25,26.25l43.75,-43.75l0,-12.5Z" style="fill:#ec7d7d;stroke:#000;stroke-width:4.17px;"/><path id="Sample-Triangle11" serif:id="Sample Triangle" d="M3457.91,325l-19,-50l0,100l19,-50Z" style="fill:#5a80cb;stroke:#000;stroke-width:4.17px;"/><path id="Sample-Triangle12" serif:id="Sample Triangle" d="M3496.91,325l-36,-50l0,100l36,-50Z" style="fill:#5a80cb;stroke:#000;stroke-width:4.17px;"/><path id="Sample-Triangle13" serif:id="Sample Triangle" d="M3542.91,325l-36,-50l0,100l36,-50Z" style="fill:#5a80cb;stroke:#000;stroke-width:4.17px;"/><path id="Sample-Gene17" serif:id="Sample Gene" d="M3670.91,325l-50,-50l-46,0c-16.557,0 -30,13.443 -30,30l0,40c0,16.557 13.443,30 30,30l46,0l50,-50Z" style="fill:#ec7d7d;stroke:#000;stroke-width:4.17px;"/><path id="Sample-Triangle14" serif:id="Sample Triangle" d="M3685.91,325l-12,-50l0,100l12,-50Z" style="fill:#5a80cb;stroke:#000;stroke-width:4.17px;"/></g><path d="M900.409,525l-32.5,0l50,-50l50,50l-32.5,0l0,200l32.5,0l-50,50l-50,-50l32.5,0l0,-200Z" style="fill:#a37bc6;stroke:#000;stroke-width:4.17px;"/><path d="M900.409,1125l-32.5,0l50,-50l50,50l-32.5,0l0,200l32.5,0l-50,50l-50,-50l32.5,0l0,-200Z" style="fill:#a37bc6;stroke:#000;stroke-width:4.17px;"/><text x="3613.96px" y="452.993px" style="font-family:'Helvetica-Bold', 'Helvetica';font-weight:700;font-size:50px;">29,903 bp</text><text x="3613.96px" y="1652.99px" style="font-family:'Helvetica-Bold', 'Helvetica';font-weight:700;font-size:50px;">29,855 bp</text><text x="3613.96px" y="1042.99px" style="font-family:'Helvetica-Bold', 'Helvetica';font-weight:700;font-size:50px;">29,521 bp</text><text x="567.909px" y="442.993px" style="font-family:'Helvetica-Bold', 'Helvetica';font-weight:700;font-size:50px;">SARS-CoV-2</text><text x="569.409px" y="1042.99px" style="font-family:'Helvetica-Bold', 'Helvetica';font-weight:700;font-size:50px;">Pangolin CoV</text><text x="569.409px" y="1642.99px" style="font-family:'Helvetica-Bold', 'Helvetica';font-weight:700;font-size:50px;">Bat CoV RaTG13</text><rect x="527.909" y="75" width="3448" height="1700" style="fill:none;stroke:#000;stroke-width:4.17px;"/><text x="1377.1px" y="342.932px" style="font-family:'Helvetica';font-size:50px;">1a</text><text x="2441.6px" y="342.932px" style="font-family:'Helvetica';font-size:50px;">1b</text><text x="3048.23px" y="342.932px" style="font-family:'Helvetica';font-size:50px;">S</text><text x="3260.1px" y="335px" style="font-family:'Helvetica';font-size:50px;">3a</text><text x="3210.23px" y="175px" style="font-family:'Helvetica';font-size:50px;">E</text><text x="3377.08px" y="342.932px" style="font-family:'Helvetica';font-size:50px;">M</text><text x="3349.01px" y="175px" style="font-family:'Helvetica';font-size:50px;">6</text><text x="3480.1px" y="175px" style="font-family:'Helvetica';font-size:50px;">7a</text><text x="3606.01px" y="175px" style="font-family:'Helvetica';font-size:50px;">8</text><text x="3589.86px" y="342.932px" style="font-family:'Helvetica';font-size:50px;">N</text><text x="3760.1px" y="175px" style="font-family:'Helvetica';font-size:50px;">10</text><path d="M3337.91,275l-100,-100" style="fill:none;stroke:#7f7f7f;stroke-width:7.5px;stroke-dasharray:7.5,7.5;"/><path d="M3507.91,275l100,-100" style="fill:none;stroke:#7f7f7f;stroke-width:7.5px;stroke-dasharray:7.5,7.5;"/><path d="M3462.91,275l23,-100" style="fill:none;stroke:#7f7f7f;stroke-width:7.5px;stroke-dasharray:7.5,7.5;"/><path d="M3438.7,275l-70.789,-100" style="fill:none;stroke:#7f7f7f;stroke-width:7.5px;stroke-dasharray:7.5,7.5;"/><path d="M3677.91,275l100,-100" style="fill:none;stroke:#7f7f7f;stroke-width:7.5px;stroke-dasharray:7.5,7.5;"/></g><clipPath id="_clip1"><rect id="human" x="225.909" y="77" width="135.273" height="360"/></clipPath><g clip-path="url(#_clip1)"><g><g id="path3"><path d="M322.413,87.027l3.675,6.789c0.18,0.332 0.353,0.657 0.519,0.975c0.152,0.305 0.29,0.595 0.415,0.872c0.125,0.277 0.242,0.554 0.353,0.831c0.111,0.249 0.208,0.498 0.291,0.747c0.069,0.236 0.131,0.471 0.186,0.706c0.056,0.235 0.097,0.464 0.125,0.685c0.028,0.208 0.048,0.422 0.062,0.644c0,0.207 -0.007,0.422 -0.021,0.643c-0.013,0.208 -0.041,0.415 -0.083,0.623c-0.041,0.221 -0.09,0.443 -0.145,0.664c-0.069,0.208 -0.146,0.43 -0.228,0.665c-0.083,0.235 -0.174,0.47 -0.27,0.705c-0.111,0.25 -0.229,0.506 -0.353,0.769c-0.125,0.262 -0.256,0.532 -0.395,0.809l-0.519,1.101c-0.069,0.152 -0.124,0.304 -0.166,0.456c-0.055,0.153 -0.104,0.298 -0.145,0.436c-0.042,0.138 -0.069,0.277 -0.083,0.415c-0.028,0.153 -0.048,0.305 -0.062,0.457l-0.042,0.997c0,0.318 -0.007,0.615 -0.021,0.892c-0.013,0.277 -0.035,0.54 -0.062,0.789c-0.041,0.236 -0.09,0.464 -0.145,0.685c-0.056,0.208 -0.118,0.415 -0.187,0.623c-0.083,0.18 -0.173,0.367 -0.27,0.561c-0.111,0.179 -0.228,0.36 -0.353,0.539c-0.138,0.181 -0.291,0.36 -0.457,0.54c-0.18,0.18 -0.367,0.367 -0.561,0.561c-0.152,0.152 -0.297,0.304 -0.436,0.456c-0.138,0.139 -0.263,0.291 -0.373,0.457c-0.125,0.138 -0.242,0.291 -0.353,0.457c-0.111,0.152 -0.208,0.311 -0.291,0.477c-0.097,0.153 -0.18,0.312 -0.249,0.478c-0.069,0.152 -0.131,0.311 -0.187,0.477l-0.768,1.91c-0.083,0.18 -0.152,0.332 -0.207,0.457c-0.097,0.18 -0.187,0.367 -0.27,0.56c-0.083,0.18 -0.16,0.374 -0.229,0.582c-0.069,0.207 -0.131,0.422 -0.187,0.643c-0.055,0.235 -0.103,0.485 -0.145,0.748c-0.056,0.249 -0.097,0.526 -0.125,0.83c-0.041,0.291 -0.076,0.609 -0.104,0.955l-0.248,5.792l1.204,1.765c0.111,0.179 0.235,0.36 0.373,0.539c0.139,0.167 0.277,0.34 0.416,0.519c0.138,0.167 0.284,0.333 0.436,0.499c0.152,0.166 0.304,0.325 0.457,0.477c0.152,0.153 0.311,0.305 0.477,0.457c0.152,0.152 0.311,0.298 0.477,0.436c0.166,0.124 0.332,0.256 0.499,0.394c0.165,0.125 0.332,0.242 0.498,0.353c0.165,0.111 0.332,0.215 0.498,0.312c0.166,0.096 0.332,0.194 0.498,0.29l1.1,0.665c0.083,0.069 0.159,0.131 0.228,0.186c0.056,0.042 0.146,0.118 0.27,0.229l4.65,3.467l2.076,1.764l1.059,0.644l1.163,0.415l0.913,0.208l5.252,0.685c0.166,0.041 0.339,0.089 0.519,0.145c0.166,0.042 0.325,0.09 0.478,0.145c0.152,0.056 0.304,0.118 0.457,0.187c0.138,0.07 0.284,0.139 0.435,0.208c0.167,0.083 0.347,0.187 0.541,0.311c0.193,0.125 0.394,0.263 0.601,0.415c0.194,0.153 0.402,0.326 0.623,0.519c0.222,0.18 0.45,0.374 0.685,0.582c0.221,0.194 0.443,0.408 0.664,0.643c0.236,0.222 0.464,0.45 0.686,0.685c0.221,0.235 0.442,0.471 0.664,0.706c0.207,0.236 0.415,0.478 0.623,0.727c0.194,0.235 0.387,0.47 0.581,0.706c0.166,0.221 0.332,0.449 0.498,0.685c0.152,0.221 0.291,0.436 0.415,0.643c0.125,0.194 0.235,0.381 0.333,0.561l3.259,6.809l0.146,0.395c0.096,0.221 0.159,0.394 0.186,0.519c0.028,0.152 0.062,0.339 0.104,0.56l0.104,0.685l0.373,6.498l-0.061,1.619c-0.015,0.221 -0.028,0.429 -0.042,0.623l-0.146,1.308c-0.013,0.165 -0.021,0.325 -0.021,0.477c0,0.138 0.008,0.277 0.021,0.415c0.014,0.111 0.035,0.235 0.062,0.374c0.028,0.124 0.062,0.255 0.104,0.394l0.394,0.934c0.125,0.291 0.25,0.616 0.374,0.976c0.125,0.346 0.249,0.727 0.373,1.142c0.111,0.401 0.215,0.823 0.312,1.266c0.111,0.457 0.214,0.927 0.311,1.412c0.083,0.484 0.173,0.996 0.27,1.536c0.083,0.526 0.159,1.08 0.228,1.661c0.07,0.553 0.139,1.135 0.208,1.744c0.056,0.608 0.111,1.231 0.166,1.868c0.042,0.623 0.083,1.267 0.125,1.93c0.041,0.665 0.076,1.343 0.103,2.035c0.028,0.678 0.049,1.377 0.063,2.097c0,0.706 0.007,1.426 0.02,2.159l0.021,4.421l0.27,4.194l2.242,9.654l0.581,3.404l-0.062,8.429l-0.374,4.09l-2.968,14.636l-0.498,1.847c-0.069,0.166 -0.139,0.395 -0.208,0.685l-2.886,16.006l-0.124,0.436c-0.042,0.139 -0.077,0.298 -0.104,0.478c-0.042,0.193 -0.076,0.401 -0.104,0.623l-0.104,0.705l-0.29,5.605l-0.872,7.349c-0.056,0.264 -0.104,0.506 -0.146,0.727c-0.055,0.208 -0.11,0.408 -0.166,0.602c-0.055,0.18 -0.11,0.346 -0.166,0.498c-0.055,0.138 -0.111,0.277 -0.165,0.415c-0.07,0.139 -0.146,0.27 -0.229,0.395l-3.031,5.813c-0.125,0.221 -0.249,0.436 -0.373,0.643c-0.125,0.194 -0.25,0.374 -0.374,0.54c-0.124,0.167 -0.256,0.339 -0.395,0.519c-0.151,0.166 -0.311,0.332 -0.477,0.498c-0.166,0.166 -0.346,0.346 -0.539,0.54c-0.194,0.18 -0.409,0.381 -0.644,0.602l-2.18,1.952l-0.415,5.667l-2.076,10.941c-0.111,0.401 -0.208,0.761 -0.291,1.079c-0.096,0.319 -0.186,0.609 -0.269,0.872c-0.084,0.263 -0.167,0.498 -0.25,0.706c-0.083,0.194 -0.166,0.374 -0.249,0.54c-0.083,0.166 -0.173,0.318 -0.27,0.457c-0.055,0.083 -0.103,0.18 -0.145,0.29c-0.056,0.097 -0.097,0.222 -0.125,0.374c-0.041,0.138 -0.076,0.311 -0.104,0.519l-0.394,17.916c0,0.194 0.014,0.387 0.042,0.581c0.014,0.193 0.034,0.38 0.062,0.561c0.027,0.165 0.069,0.345 0.124,0.539c0.042,0.18 0.097,0.367 0.166,0.561l1.391,4.11l1.412,6.166l1.142,9.508c0.041,0.277 0.076,0.575 0.104,0.893c0.027,0.318 0.048,0.657 0.062,1.017l0.021,4.754l-0.333,4.775c-0.055,0.346 -0.103,0.685 -0.145,1.017c-0.042,0.304 -0.09,0.602 -0.146,0.893l-1.723,12.082l-1.868,9.57l-1.472,6.355c-0.027,0.111 -0.048,0.291 -0.062,0.54l-0.353,11.418l0.083,1.453c0.014,0.152 0.041,0.29 0.083,0.415c0.027,0.111 0.069,0.208 0.124,0.29c0.042,0.083 0.09,0.167 0.146,0.25c0.124,0.152 0.277,0.367 0.457,0.644l5.792,12.29l0.166,0.269c0.083,0.139 0.186,0.319 0.311,0.54c0.125,0.221 0.249,0.464 0.374,0.727l1.743,3.84c0.111,0.208 0.208,0.388 0.291,0.54c0.124,0.208 0.235,0.408 0.332,0.602c0.083,0.208 0.159,0.408 0.229,0.602c0.069,0.18 0.124,0.367 0.165,0.561c0.028,0.18 0.049,0.373 0.063,0.581c0.013,0.18 0.007,0.381 -0.021,0.602c-0.028,0.208 -0.062,0.422 -0.104,0.644c-0.056,0.207 -0.118,0.442 -0.187,0.705c-0.083,0.25 -0.173,0.512 -0.27,0.789c-0.111,0.263 -0.214,0.519 -0.311,0.768c-0.111,0.25 -0.215,0.478 -0.311,0.685c-0.111,0.208 -0.222,0.415 -0.333,0.623c-0.11,0.208 -0.228,0.408 -0.353,0.602c-0.125,0.18 -0.256,0.367 -0.394,0.561c-0.152,0.18 -0.304,0.373 -0.457,0.581c-0.18,0.18 -0.367,0.381 -0.561,0.602c-0.194,0.221 -0.408,0.45 -0.643,0.685l-0.644,0.623c-0.207,0.152 -0.394,0.283 -0.561,0.394c-0.165,0.097 -0.332,0.166 -0.498,0.207c-0.166,0.042 -0.332,0.063 -0.498,0.063c-0.111,0 -0.229,0.013 -0.353,0.041c-0.138,0.014 -0.27,0.042 -0.395,0.083c-0.138,0.028 -0.276,0.07 -0.415,0.125c-0.138,0.042 -0.269,0.097 -0.394,0.166c-0.138,0.055 -0.256,0.117 -0.353,0.187c-0.152,0.083 -0.319,0.159 -0.498,0.228c-0.18,0.056 -0.367,0.111 -0.561,0.166c-0.207,0.042 -0.422,0.083 -0.643,0.125c-0.222,0.013 -0.451,0.027 -0.686,0.041l-0.269,0c-0.194,0 -0.388,-0.007 -0.581,-0.021c-0.194,-0.013 -0.388,-0.034 -0.582,-0.062c-0.249,-0.027 -0.484,-0.069 -0.705,-0.124c-0.235,-0.056 -0.457,-0.125 -0.665,-0.208c-0.194,-0.069 -0.373,-0.138 -0.539,-0.208c-0.181,-0.083 -0.339,-0.159 -0.478,-0.228c-0.138,-0.083 -0.269,-0.173 -0.394,-0.27c-0.125,-0.097 -0.235,-0.2 -0.333,-0.311c-0.11,-0.125 -0.214,-0.256 -0.311,-0.394c-0.111,-0.153 -0.215,-0.312 -0.311,-0.478c-0.097,-0.18 -0.194,-0.38 -0.291,-0.602c-0.11,-0.221 -0.221,-0.463 -0.332,-0.726l-0.457,-0.996c-0.138,-0.264 -0.277,-0.478 -0.415,-0.644c-0.152,-0.166 -0.325,-0.319 -0.519,-0.457c-0.194,-0.138 -0.436,-0.27 -0.727,-0.395c-0.512,-0.249 -0.934,-0.539 -1.266,-0.872c-0.346,-0.346 -0.616,-0.768 -0.81,-1.266c-0.096,-0.249 -0.18,-0.526 -0.249,-0.83c-0.069,-0.305 -0.118,-0.63 -0.146,-0.976c-0.041,-0.36 -0.069,-0.748 -0.083,-1.163c-0.013,-0.415 -0.013,-0.865 0,-1.349l0.063,-2.99l-3.488,-3.155c-0.235,-0.194 -0.443,-0.354 -0.623,-0.478l-0.393,-0.331c-0.139,-0.097 -0.263,-0.194 -0.374,-0.291c-0.111,-0.111 -0.214,-0.215 -0.311,-0.311c-0.097,-0.111 -0.18,-0.222 -0.249,-0.332c-0.097,-0.111 -0.173,-0.215 -0.229,-0.312c-0.069,-0.124 -0.131,-0.242 -0.186,-0.353c-0.111,-0.235 -0.187,-0.484 -0.229,-0.748c-0.028,-0.138 -0.048,-0.283 -0.062,-0.435c-0.014,-0.152 -0.021,-0.312 -0.021,-0.478c0,-0.166 0.007,-0.339 0.021,-0.519l0.041,-0.56l0.561,-2.969c0.042,-0.249 0.09,-0.512 0.146,-0.789l0.394,-2.802l0.747,-14.823c0.014,-0.235 0.021,-0.45 0.021,-0.644c-0.013,-0.221 -0.027,-0.428 -0.041,-0.622c-0.014,-0.194 -0.035,-0.381 -0.063,-0.561c-0.027,-0.18 -0.055,-0.346 -0.083,-0.498c-0.041,-0.166 -0.082,-0.325 -0.124,-0.478l-0.104,-0.332l-1.826,-8.802c-0.097,-0.415 -0.194,-0.83 -0.291,-1.246c-0.097,-0.442 -0.187,-0.885 -0.27,-1.328c-0.097,-0.457 -0.18,-0.913 -0.249,-1.37c-0.083,-0.471 -0.16,-0.948 -0.228,-1.433c-0.083,-0.47 -0.153,-0.948 -0.208,-1.432c-0.056,-0.498 -0.111,-0.99 -0.166,-1.474c-0.056,-0.498 -0.097,-0.99 -0.125,-1.474c-0.042,-0.499 -0.076,-0.983 -0.103,-1.454l-0.354,-3.217c-0.041,-0.222 -0.082,-0.443 -0.124,-0.665c-0.056,-0.221 -0.111,-0.436 -0.166,-0.643l-2.305,-7.868c-0.221,-0.858 -0.415,-1.696 -0.581,-2.512c-0.18,-0.831 -0.332,-1.627 -0.457,-2.388c-0.124,-0.775 -0.228,-1.536 -0.311,-2.283c-0.083,-0.748 -0.146,-1.481 -0.187,-2.201c-0.042,-0.734 -0.055,-1.467 -0.042,-2.201c0,-0.734 0.021,-1.46 0.063,-2.18c0.041,-0.719 0.111,-1.46 0.207,-2.221c0.083,-0.761 0.187,-1.53 0.312,-2.304l0.768,-5.709l-0.062,-0.706c-0.042,-0.222 -0.097,-0.436 -0.166,-0.644c-0.069,-0.207 -0.16,-0.429 -0.27,-0.665l-1.433,-3.486c-0.07,-0.25 -0.118,-0.443 -0.146,-0.582l-1.204,-7.536l-1.889,-23.334l-0.768,-5.523l-4.567,-14.532l-0.042,-0.062l-0.021,-0.02c-0.027,0 -0.055,0.02 -0.083,0.062c-0.027,0.042 -0.055,0.096 -0.083,0.166c-0.027,0.069 -0.042,0.159 -0.042,0.269c-0.013,0.083 -0.02,0.187 -0.02,0.312l-1.515,14.801l0.581,18l-0.125,4.9c-0.027,0.47 -0.055,0.92 -0.083,1.349c-0.041,0.415 -0.083,0.796 -0.124,1.142c-0.042,0.346 -0.083,0.657 -0.125,0.934c-0.055,0.263 -0.111,0.484 -0.166,0.664l-0.104,0.353l-1.038,5.544l2.242,6.954l0.955,3.779l0.644,3.612c0.056,0.374 0.104,0.747 0.146,1.121c0.041,0.36 0.076,0.713 0.103,1.059c0.028,0.346 0.049,0.685 0.062,1.017c0.014,0.319 0.028,0.63 0.042,0.934l-0.373,4.671l-1.682,11.75c-0.014,0.263 -0.021,0.478 -0.021,0.644l-0.187,2.761l-1.785,12.124l0.228,7.473l2.553,22.982l0.083,0.456c0.028,0.181 0.056,0.381 0.083,0.602l0.166,2.782l0,0.602c-0.042,0.872 -0.173,1.613 -0.394,2.222c-0.221,0.595 -0.596,1.107 -1.121,1.536c-0.526,0.415 -1.253,0.796 -2.18,1.142c-0.471,0.166 -1.004,0.339 -1.599,0.519c-0.609,0.166 -1.28,0.346 -2.014,0.54l-3.902,1.058l-1.017,0.395c-0.153,0.069 -0.291,0.138 -0.416,0.207c-0.138,0.07 -0.262,0.146 -0.373,0.229c-0.125,0.069 -0.235,0.145 -0.332,0.228c-0.222,0.166 -0.416,0.346 -0.582,0.54c-0.18,0.18 -0.353,0.395 -0.519,0.644l-3.218,5.771c-0.11,0.221 -0.228,0.436 -0.353,0.644c-0.138,0.207 -0.262,0.408 -0.373,0.602c-0.125,0.193 -0.249,0.373 -0.374,0.539c-0.111,0.152 -0.222,0.291 -0.332,0.416c-0.097,0.124 -0.187,0.221 -0.27,0.29c-0.111,0.083 -0.228,0.166 -0.353,0.249c-0.124,0.083 -0.263,0.167 -0.415,0.25c-0.152,0.083 -0.311,0.166 -0.478,0.249l-1.681,0.685l-2.346,0.581c-0.18,0.014 -0.339,0.027 -0.477,0.042c-0.167,0.014 -0.312,0.021 -0.436,0.021l-0.208,0c-0.208,0 -0.388,0.007 -0.54,0.021c-0.193,0.027 -0.366,0.068 -0.519,0.124c-0.166,0.042 -0.318,0.111 -0.457,0.208c-0.138,0.083 -0.276,0.194 -0.415,0.332c-0.138,0.111 -0.27,0.221 -0.394,0.332c-0.153,0.111 -0.298,0.208 -0.436,0.291c-0.138,0.083 -0.284,0.159 -0.436,0.228c-0.166,0.069 -0.339,0.132 -0.519,0.187c-0.166,0.042 -0.353,0.083 -0.561,0.124c-0.207,0.042 -0.422,0.07 -0.643,0.083c-0.236,0.028 -0.478,0.049 -0.727,0.063l-0.892,0c-0.305,0 -0.589,-0.007 -0.852,-0.021c-0.277,-0.014 -0.532,-0.035 -0.768,-0.062c-0.235,-0.028 -0.464,-0.063 -0.685,-0.104c-0.207,-0.042 -0.408,-0.09 -0.602,-0.145c-0.194,-0.07 -0.374,-0.139 -0.54,-0.208c-0.166,-0.083 -0.325,-0.173 -0.477,-0.27c-0.153,-0.097 -0.298,-0.2 -0.436,-0.311c-0.138,-0.125 -0.263,-0.249 -0.374,-0.374c-0.097,-0.111 -0.2,-0.215 -0.311,-0.311l-0.727,-0.644c-0.124,-0.097 -0.235,-0.18 -0.332,-0.249c-0.277,-0.194 -0.505,-0.485 -0.685,-0.872c-0.097,-0.208 -0.18,-0.429 -0.249,-0.665c-0.069,-0.249 -0.131,-0.512 -0.187,-0.789c-0.042,-0.29 -0.076,-0.601 -0.104,-0.934c-0.028,-0.332 -0.041,-0.678 -0.041,-1.038c0,-0.373 0.013,-0.761 0.041,-1.162c0.014,-0.402 0.049,-0.817 0.104,-1.246l0.249,-1.848l0.104,-0.436c0.055,-0.276 0.132,-0.505 0.228,-0.684c0.083,-0.18 0.18,-0.326 0.291,-0.437c0.041,-0.055 0.097,-0.131 0.166,-0.228l0.228,-0.311l0.955,-1.786c0.111,-0.249 0.229,-0.477 0.353,-0.685c0.111,-0.221 0.222,-0.408 0.332,-0.56c0.111,-0.166 0.229,-0.319 0.353,-0.457c0.125,-0.139 0.257,-0.256 0.395,-0.353c0.124,-0.111 0.27,-0.201 0.436,-0.27c0.166,-0.097 0.346,-0.173 0.54,-0.229c0.193,-0.069 0.408,-0.124 0.643,-0.165c0.221,-0.056 0.47,-0.104 0.747,-0.146l0.831,-0.166l1.391,-0.457c0.221,-0.111 0.449,-0.242 0.685,-0.394l1.142,-0.872l2.678,-2.491c0.512,-0.499 1.003,-0.983 1.474,-1.454c0.47,-0.484 0.913,-0.941 1.328,-1.37c0.402,-0.442 0.782,-0.865 1.142,-1.266c0.36,-0.415 0.692,-0.81 0.997,-1.184c0.29,-0.373 0.56,-0.734 0.809,-1.08c0.249,-0.345 0.478,-0.678 0.685,-0.996c0.194,-0.318 0.367,-0.623 0.519,-0.913c0.153,-0.291 0.277,-0.568 0.374,-0.83l0.332,-0.997c0.042,-0.152 0.083,-0.304 0.125,-0.457c0.013,-0.166 0.034,-0.325 0.062,-0.477c0.014,-0.166 0.021,-0.346 0.021,-0.54l-0.062,-2.304c-0.028,-0.347 -0.063,-0.727 -0.104,-1.142c-0.042,-0.429 -0.097,-0.893 -0.166,-1.391c-0.07,-0.499 -0.146,-1.025 -0.229,-1.578c-0.096,-0.567 -0.194,-1.156 -0.29,-1.765l-5.128,-23.5l-1.599,-8.533c-0.041,-0.332 -0.076,-0.65 -0.103,-0.955c-0.028,-0.304 -0.042,-0.595 -0.042,-0.872l-0.166,-1.619c-0.042,-0.249 -0.083,-0.464 -0.125,-0.644c-0.055,-0.18 -0.103,-0.318 -0.145,-0.415c-0.055,-0.111 -0.111,-0.256 -0.166,-0.436c-0.055,-0.18 -0.104,-0.394 -0.145,-0.644c-0.042,-0.263 -0.083,-0.546 -0.125,-0.851c-0.041,-0.319 -0.076,-0.657 -0.104,-1.017l-0.249,-5.273l0.229,-8.969c0.027,-0.47 0.062,-0.913 0.103,-1.328c0.042,-0.415 0.09,-0.81 0.146,-1.184l0.145,-1.307c0,-0.18 0.007,-0.346 0.021,-0.498c0,-0.153 -0.007,-0.291 -0.021,-0.416c-0.014,-0.138 -0.027,-0.27 -0.042,-0.394c-0.027,-0.125 -0.055,-0.249 -0.083,-0.374l-1.245,-3.778l-2.284,-10.048l-0.373,-2.429l-2.741,-10.089c-0.069,-0.319 -0.138,-0.706 -0.207,-1.163c-0.07,-0.471 -0.139,-1.003 -0.208,-1.599c-0.083,-0.595 -0.159,-1.245 -0.228,-1.951c-0.07,-0.72 -0.139,-1.488 -0.208,-2.305l-1.059,-15.362l-1.494,-12.456l-1.308,-12.892l0.768,-3.965l1.328,-5.315c0.083,-0.263 0.159,-0.492 0.229,-0.685l0.249,-0.665c0.069,-0.207 0.131,-0.408 0.187,-0.601c0.055,-0.208 0.104,-0.423 0.145,-0.644l0.125,-0.769l0.56,-11.376l0.145,-0.976c0,-0.069 0.008,-0.111 0.021,-0.124c0.028,-0.042 0.055,-0.125 0.083,-0.25c0.028,-0.125 0.055,-0.284 0.083,-0.477l0.249,-7.391l3.716,-10.899l-0.041,-3.239l-0.374,-4.276l-0.29,-1.184c-0.236,-0.872 -0.464,-1.716 -0.685,-2.533c-0.222,-0.83 -0.423,-1.626 -0.602,-2.387c-0.194,-0.761 -0.374,-1.509 -0.54,-2.242c-0.166,-0.747 -0.319,-1.467 -0.457,-2.159c-0.152,-0.706 -0.284,-1.405 -0.394,-2.097c-0.125,-0.692 -0.242,-1.376 -0.353,-2.055c-0.097,-0.692 -0.194,-1.384 -0.291,-2.076c-0.097,-0.706 -0.18,-1.412 -0.249,-2.117c-0.055,-0.623 -0.118,-1.177 -0.187,-1.661c-0.069,-0.485 -0.131,-0.893 -0.187,-1.225c-0.138,-0.679 -0.304,-1.1 -0.498,-1.266c-0.069,-0.07 -0.145,-0.104 -0.228,-0.104c-0.153,0 -0.333,0.089 -0.54,0.269c-0.166,0.139 -0.353,0.332 -0.561,0.581c-0.207,0.25 -0.442,0.547 -0.706,0.893l-1.868,2.034c-0.111,0.097 -0.208,0.18 -0.291,0.249c-0.124,0.083 -0.269,0.181 -0.436,0.291c-0.166,0.11 -0.359,0.228 -0.581,0.353l-0.747,0.394l-7.474,3.218c-0.235,0.083 -0.449,0.153 -0.643,0.208c-0.181,0.042 -0.381,0.104 -0.602,0.187l-4.132,1.64c-0.512,0.235 -0.989,0.456 -1.432,0.664c-0.457,0.194 -0.872,0.374 -1.246,0.54c-0.387,0.152 -0.754,0.29 -1.1,0.415c-0.36,0.125 -0.692,0.235 -0.996,0.333c-0.305,0.096 -0.603,0.18 -0.893,0.249c-0.291,0.055 -0.568,0.111 -0.831,0.166c-0.262,0.027 -0.526,0.055 -0.788,0.083c-0.263,0.014 -0.527,0.021 -0.789,0.021l-0.478,0l-6.435,-0.852l-2.492,-0.519c-0.318,-0.096 -0.56,-0.18 -0.726,-0.249c-0.153,-0.055 -0.298,-0.131 -0.436,-0.229c-0.125,-0.083 -0.242,-0.186 -0.353,-0.311c-0.125,-0.124 -0.236,-0.27 -0.332,-0.436c-0.111,-0.166 -0.208,-0.353 -0.291,-0.561c-0.097,-0.221 -0.187,-0.47 -0.27,-0.747c-0.097,-0.277 -0.187,-0.588 -0.27,-0.934c-0.096,-0.346 -0.187,-0.727 -0.27,-1.142c-0.083,-0.429 -0.173,-0.9 -0.27,-1.411l-1.058,-4.526c-0.083,-0.194 -0.159,-0.492 -0.229,-0.893c-0.069,-0.415 -0.131,-0.927 -0.186,-1.536c-0.07,-0.609 -0.132,-1.322 -0.187,-2.138c-0.056,-0.816 -0.111,-1.723 -0.166,-2.72c-0.042,-0.692 -0.07,-1.384 -0.083,-2.076c-0.028,-0.705 -0.049,-1.405 -0.063,-2.096c-0.013,-0.706 -0.02,-1.419 -0.02,-2.139c0,-0.719 0.007,-1.432 0.02,-2.138c0.014,-0.719 0.035,-1.439 0.063,-2.159c0.013,-0.733 0.041,-1.46 0.083,-2.179c0.027,-0.72 0.069,-1.44 0.124,-2.159c0.042,-0.734 0.09,-1.454 0.145,-2.159c0.056,-0.72 0.118,-1.433 0.187,-2.139c0.07,-0.719 0.146,-1.426 0.229,-2.117c0.083,-0.706 0.166,-1.398 0.249,-2.076c0.097,-0.692 0.193,-1.378 0.29,-2.056l1.89,-13.93l-1.371,-3.633l-1.702,-6.207l-1.349,-12.02c-0.042,-0.346 -0.083,-0.574 -0.125,-0.685c-0.069,-0.249 -0.131,-0.519 -0.187,-0.81c-0.069,-0.29 -0.117,-0.595 -0.145,-0.913c-0.055,-0.332 -0.09,-0.678 -0.104,-1.038c-0.028,-0.36 -0.041,-0.72 -0.041,-1.08c-0.014,-0.373 -0.014,-0.747 0,-1.121c0.013,-0.373 0.034,-0.733 0.062,-1.079c0.028,-0.374 0.069,-0.727 0.125,-1.059c0.041,-0.332 0.096,-0.651 0.166,-0.955c0.083,-0.374 0.173,-0.72 0.269,-1.038c0.097,-0.332 0.208,-0.63 0.333,-0.893c0.111,-0.262 0.228,-0.505 0.353,-0.726c0.124,-0.222 0.256,-0.408 0.394,-0.561c0.277,-0.332 0.581,-0.553 0.913,-0.664c0.139,-0.042 0.284,-0.062 0.436,-0.062c0.18,0 0.367,0.034 0.561,0.103c0.346,0.125 0.706,0.374 1.079,0.748l0.644,0.623l0.228,0.186l0.063,0.042l0.041,0.021l0.021,0l0,-0.019l0.041,-0.042l0.104,-0.228l0.582,-1.598l1.806,-3.55c0.124,-0.194 0.228,-0.325 0.311,-0.395c0.055,-0.055 0.132,-0.104 0.228,-0.145c0.097,-0.055 0.215,-0.111 0.353,-0.166c0.111,-0.055 0.236,-0.097 0.374,-0.125c0.125,-0.041 0.256,-0.076 0.394,-0.104c0.181,-0.041 0.34,-0.062 0.478,-0.062c0.152,0 0.291,0.028 0.415,0.083c0.111,0.042 0.229,0.111 0.353,0.208c0.125,0.097 0.263,0.228 0.415,0.394c0.166,0.18 0.298,0.319 0.395,0.415c0.096,0.083 0.18,0.139 0.249,0.167l0.041,0c0.042,0 0.083,-0.021 0.125,-0.063c0.055,-0.055 0.111,-0.145 0.166,-0.27c0.042,-0.069 0.083,-0.159 0.125,-0.27l0.269,-0.768l0.084,-0.373c0.041,-0.194 0.103,-0.381 0.186,-0.561c0.07,-0.194 0.166,-0.381 0.291,-0.56c0.097,-0.194 0.215,-0.367 0.353,-0.519c0.138,-0.181 0.284,-0.333 0.436,-0.457c0.138,-0.138 0.283,-0.256 0.436,-0.353c0.138,-0.097 0.283,-0.166 0.436,-0.208c0.111,-0.027 0.228,-0.041 0.353,-0.041c0.069,0 0.145,0.007 0.228,0.021c0.18,0.041 0.353,0.117 0.519,0.228c0.166,0.125 0.319,0.284 0.457,0.477c0.069,0.083 0.131,0.181 0.187,0.291c0.055,0.111 0.111,0.228 0.166,0.353c0.041,0.125 0.083,0.256 0.124,0.394c0.028,0.125 0.049,0.263 0.063,0.416l0.145,0.789c0.041,0.179 0.097,0.297 0.166,0.352c0.027,0.028 0.062,0.042 0.104,0.042c0.055,-0.014 0.117,-0.034 0.187,-0.062c0.124,-0.07 0.29,-0.18 0.498,-0.332c0.166,-0.125 0.339,-0.222 0.519,-0.291c0.18,-0.069 0.36,-0.111 0.54,-0.125l0.062,0c0.152,0 0.304,0.028 0.457,0.083c0.166,0.042 0.325,0.118 0.477,0.229c0.152,0.111 0.297,0.256 0.436,0.436c0.125,0.152 0.242,0.339 0.353,0.56c0.111,0.194 0.208,0.415 0.291,0.665c0.083,0.249 0.159,0.532 0.228,0.851c0.069,0.304 0.125,0.65 0.166,1.038c0.042,0.373 0.076,0.802 0.104,1.287c0.014,0.47 0.028,0.989 0.041,1.557c0.014,0.553 0.014,1.169 0,1.847c0,0.679 -0.013,1.412 -0.041,2.201l0,6c0.014,0.277 0.041,0.533 0.083,0.768l0.083,0.685c0.028,0.222 0.062,0.443 0.104,0.664l0.394,1.64c0.07,0.222 0.131,0.408 0.187,0.561c0.042,0.138 0.083,0.228 0.125,0.27l0.041,0.02c0.028,-0.013 0.069,-0.027 0.125,-0.041c0.096,-0.042 0.214,-0.104 0.353,-0.187c0.138,-0.097 0.304,-0.215 0.498,-0.353c0.194,-0.152 0.401,-0.325 0.623,-0.519l0.705,-0.623c0.277,-0.262 0.554,-0.505 0.831,-0.726c0.263,-0.222 0.526,-0.422 0.789,-0.602c0.249,-0.18 0.505,-0.346 0.768,-0.498c0.249,-0.153 0.498,-0.284 0.747,-0.395c0.249,-0.111 0.506,-0.2 0.768,-0.27c0.25,-0.083 0.512,-0.152 0.789,-0.207c0.249,-0.056 0.519,-0.091 0.81,-0.104c0.277,-0.028 0.568,-0.042 0.872,-0.042l0.021,0c0.318,0 0.609,0.021 0.872,0.063c0.262,0.041 0.511,0.103 0.747,0.186c0.443,0.153 0.796,0.367 1.059,0.644c0.262,0.277 0.436,0.602 0.519,0.976c0.027,0.166 0.041,0.346 0.041,0.539c-0.014,0.194 -0.055,0.395 -0.124,0.602c-0.07,0.194 -0.159,0.395 -0.27,0.603c-0.111,0.193 -0.249,0.394 -0.415,0.602c-0.333,0.401 -0.776,0.788 -1.329,1.162c-0.111,0.069 -0.228,0.159 -0.353,0.27c-0.138,0.111 -0.27,0.235 -0.394,0.374c-0.139,0.138 -0.277,0.29 -0.416,0.456c-0.152,0.166 -0.297,0.346 -0.436,0.54c-0.138,0.18 -0.284,0.374 -0.436,0.581c-0.152,0.194 -0.297,0.402 -0.436,0.623c-0.138,0.208 -0.277,0.429 -0.415,0.665c-0.152,0.221 -0.29,0.449 -0.415,0.685c-0.125,0.221 -0.249,0.449 -0.374,0.685c-0.124,0.221 -0.235,0.449 -0.332,0.685c-0.111,0.221 -0.207,0.443 -0.29,0.664c-0.097,0.208 -0.181,0.422 -0.25,0.644c-0.069,0.18 -0.138,0.36 -0.207,0.539c-0.083,0.167 -0.159,0.333 -0.229,0.499c-0.083,0.166 -0.166,0.332 -0.249,0.498c-0.096,0.166 -0.194,0.332 -0.29,0.498c-0.111,0.166 -0.222,0.332 -0.332,0.498c-0.125,0.18 -0.257,0.36 -0.395,0.54c-0.138,0.166 -0.283,0.346 -0.436,0.54l-2.055,2.408c-0.194,0.236 -0.36,0.45 -0.498,0.644c-0.153,0.193 -0.277,0.387 -0.374,0.581c-0.111,0.18 -0.208,0.374 -0.291,0.581l-0.851,2.512c-0.124,0.415 -0.242,0.865 -0.353,1.35c-0.124,0.484 -0.228,0.989 -0.311,1.515c-0.097,0.526 -0.187,1.087 -0.27,1.682c-0.083,0.595 -0.152,1.218 -0.208,1.868c-0.069,0.637 -0.124,1.322 -0.166,2.055c-0.055,0.72 -0.096,1.474 -0.124,2.263l-0.063,9.571l0.229,1.993l0.54,2.283l0.768,2.325c0.055,0.125 0.103,0.215 0.145,0.27c0.125,0.208 0.256,0.346 0.394,0.415c0.056,0.028 0.125,0.042 0.208,0.042c0.097,0 0.215,-0.021 0.353,-0.062c0.111,-0.056 0.242,-0.124 0.394,-0.208c0.153,-0.096 0.326,-0.214 0.519,-0.353c0.18,-0.152 0.402,-0.325 0.665,-0.519l0.809,-0.664c0.153,-0.125 0.319,-0.249 0.499,-0.374l2.2,-1.412c0.166,-0.096 0.325,-0.18 0.478,-0.249c0.194,-0.096 0.387,-0.194 0.581,-0.29c0.18,-0.097 0.346,-0.194 0.498,-0.291c0.153,-0.111 0.298,-0.222 0.436,-0.332c0.125,-0.125 0.249,-0.256 0.374,-0.395c0.124,-0.138 0.242,-0.29 0.353,-0.456c0.111,-0.166 0.228,-0.346 0.353,-0.54c0.096,-0.208 0.207,-0.429 0.332,-0.664c0.111,-0.236 0.228,-0.492 0.353,-0.768c0.055,-0.139 0.124,-0.284 0.207,-0.436l0.249,-0.478l0.935,-1.432c0.111,-0.153 0.214,-0.284 0.311,-0.395c0.111,-0.152 0.228,-0.29 0.353,-0.415l0.374,-0.415c0.124,-0.125 0.27,-0.263 0.436,-0.415c0.152,-0.153 0.325,-0.305 0.519,-0.457l3.903,-3.01c0.332,-0.263 0.685,-0.512 1.058,-0.748c0.36,-0.235 0.727,-0.456 1.101,-0.664c0.373,-0.208 0.761,-0.402 1.162,-0.581c0.402,-0.181 0.81,-0.346 1.225,-0.499c0.429,-0.166 0.872,-0.318 1.329,-0.456c0.456,-0.139 0.934,-0.263 1.432,-0.374c0.485,-0.125 0.997,-0.235 1.536,-0.332c0.526,-0.097 1.08,-0.187 1.661,-0.27l1.474,-0.291c0.221,-0.069 0.45,-0.145 0.685,-0.228l0.727,-0.332l9.674,-5.938c0.235,-0.124 0.443,-0.221 0.623,-0.29l1.017,-0.457c0.152,-0.083 0.298,-0.166 0.436,-0.249c0.138,-0.083 0.263,-0.173 0.374,-0.27c0.111,-0.083 0.221,-0.173 0.332,-0.27c0.111,-0.111 0.208,-0.214 0.291,-0.311c0.083,-0.111 0.166,-0.229 0.249,-0.353c0.069,-0.138 0.138,-0.27 0.207,-0.395c0.055,-0.138 0.111,-0.284 0.166,-0.436c0.056,-0.166 0.104,-0.332 0.146,-0.498c0.041,-0.18 0.083,-0.366 0.124,-0.56c0.028,-0.194 0.055,-0.402 0.083,-0.623l0.063,-0.685l0.041,-4.36c-0.014,-0.235 -0.027,-0.457 -0.041,-0.664c-0.028,-0.221 -0.056,-0.422 -0.083,-0.602c-0.028,-0.194 -0.063,-0.388 -0.104,-0.581c-0.056,-0.208 -0.111,-0.409 -0.166,-0.603l-0.478,-1.39c-0.138,-0.388 -0.284,-0.755 -0.436,-1.101c-0.166,-0.36 -0.325,-0.685 -0.477,-0.975c-0.166,-0.305 -0.332,-0.575 -0.499,-0.81c-0.166,-0.235 -0.325,-0.436 -0.477,-0.602c-0.138,-0.153 -0.277,-0.319 -0.415,-0.498c-0.138,-0.194 -0.27,-0.402 -0.395,-0.623c-0.124,-0.208 -0.228,-0.415 -0.311,-0.623c-0.097,-0.221 -0.166,-0.429 -0.208,-0.623c-0.055,-0.18 -0.124,-0.381 -0.207,-0.602l-0.561,-1.349c-0.097,-0.208 -0.194,-0.395 -0.29,-0.561c-0.111,-0.18 -0.208,-0.381 -0.291,-0.602l-0.395,-1.038l-0.332,-1.661c-0.055,-0.207 -0.118,-0.415 -0.187,-0.622c-0.068,-0.208 -0.138,-0.395 -0.207,-0.561c-0.083,-0.166 -0.159,-0.304 -0.228,-0.415c-0.084,-0.111 -0.16,-0.235 -0.229,-0.374c-0.083,-0.152 -0.152,-0.311 -0.207,-0.477c-0.07,-0.166 -0.132,-0.325 -0.187,-0.478c-0.056,-0.166 -0.09,-0.311 -0.104,-0.436c-0.028,-0.138 -0.076,-0.311 -0.145,-0.519l-0.893,-2.221c-0.138,-0.277 -0.256,-0.54 -0.353,-0.789c-0.097,-0.277 -0.18,-0.533 -0.249,-0.768c-0.069,-0.263 -0.125,-0.519 -0.166,-0.768c-0.042,-0.249 -0.063,-0.498 -0.063,-0.748c0,-0.249 0.014,-0.505 0.042,-0.768c0.028,-0.277 0.076,-0.553 0.145,-0.83c0.07,-0.277 0.153,-0.568 0.249,-0.872c0.084,-0.319 0.194,-0.644 0.333,-0.976l0.519,-1.598c0.027,-0.166 0.055,-0.325 0.083,-0.478c0.027,-0.152 0.048,-0.311 0.062,-0.477l0.041,-1.62c-0.013,-0.387 -0.007,-0.754 0.021,-1.1c0.014,-0.346 0.049,-0.671 0.104,-0.976c0.111,-0.595 0.304,-1.127 0.581,-1.598c0.263,-0.471 0.63,-0.893 1.101,-1.266c0.221,-0.194 0.477,-0.388 0.768,-0.582c0.29,-0.18 0.608,-0.36 0.955,-0.54c0.124,-0.069 0.249,-0.138 0.373,-0.207c0.125,-0.083 0.242,-0.159 0.353,-0.228c0.194,-0.153 0.381,-0.333 0.561,-0.54c0.097,-0.111 0.194,-0.229 0.29,-0.353c0.083,-0.125 0.174,-0.263 0.27,-0.415l1.308,-2.305c0.097,-0.166 0.194,-0.311 0.291,-0.436c0.083,-0.124 0.173,-0.235 0.27,-0.332c0.166,-0.207 0.353,-0.381 0.56,-0.519c0.111,-0.083 0.229,-0.159 0.353,-0.228c0.111,-0.07 0.236,-0.131 0.374,-0.187c0.207,-0.111 0.436,-0.208 0.685,-0.291l0.727,-0.207l1.121,-0.166l0.373,0c0.207,-0.014 0.408,-0.021 0.602,-0.021c0.194,-0.014 0.367,-0.035 0.519,-0.062c0.166,-0.028 0.325,-0.056 0.477,-0.083c0.139,-0.042 0.284,-0.091 0.436,-0.146c0.125,-0.055 0.263,-0.124 0.416,-0.207c0.138,-0.083 0.284,-0.174 0.436,-0.27c0.138,-0.097 0.29,-0.215 0.456,-0.353c0.166,-0.138 0.339,-0.284 0.519,-0.436c0.139,-0.125 0.291,-0.242 0.457,-0.353c0.152,-0.125 0.312,-0.242 0.477,-0.353c0.153,-0.111 0.319,-0.215 0.499,-0.311c0.18,-0.111 0.36,-0.215 0.539,-0.312c0.181,-0.097 0.374,-0.187 0.582,-0.27c0.18,-0.096 0.373,-0.18 0.581,-0.249c0.194,-0.083 0.394,-0.159 0.602,-0.228l0.602,-0.208c0.194,-0.055 0.401,-0.111 0.623,-0.166c0.207,-0.055 0.415,-0.097 0.622,-0.124c0.208,-0.042 0.416,-0.076 0.623,-0.104c0.208,-0.042 0.415,-0.07 0.623,-0.083l0.935,-0.021c0.208,0 0.423,0.007 0.644,0.021c0.222,0.014 0.436,0.034 0.644,0.062c0.346,0.042 0.685,0.104 1.017,0.187c0.346,0.083 0.678,0.194 0.996,0.332c0.332,0.138 0.657,0.297 0.976,0.478c0.318,0.179 0.637,0.38 0.955,0.602c0.319,0.221 0.637,0.47 0.955,0.747c0.319,0.263 0.637,0.56 0.955,0.893c1.232,1.217 2.18,1.902 2.844,2.055c0.291,0.055 0.561,0.124 0.81,0.207c0.263,0.084 0.505,0.187 0.727,0.312c0.221,0.097 0.442,0.221 0.664,0.374c0.208,0.152 0.401,0.318 0.581,0.498c0.18,0.166 0.36,0.366 0.54,0.602c0.18,0.221 0.353,0.464 0.519,0.726c0.166,0.263 0.333,0.561 0.498,0.893c0.166,0.319 0.332,0.664 0.498,1.038Zm14.117,113.143c-0.083,0.221 -0.173,0.484 -0.27,0.788c-0.111,0.305 -0.221,0.65 -0.332,1.038l-0.976,3.82l-0.207,1.64l-0.021,0.519l0.249,2.823l1.889,11.938l0.125,1.682c0.014,0.221 0.021,0.408 0.021,0.56l-0.125,1.246l-0.166,0.789l-0.104,0.332c-0.096,0.221 -0.152,0.436 -0.166,0.644c-0.013,0.096 -0.02,0.207 -0.02,0.332c0,0.111 0.013,0.242 0.041,0.394c0.028,0.139 0.062,0.298 0.104,0.477c0.056,0.181 0.118,0.388 0.187,0.623l0.809,2.408l0.935,3.903l1.432,15.031l0.249,1.099c0.097,0.25 0.201,0.381 0.312,0.395c0.11,0 0.228,-0.118 0.353,-0.353c0.069,-0.139 0.145,-0.298 0.228,-0.478c0.069,-0.193 0.146,-0.422 0.229,-0.684c0.041,-0.153 0.09,-0.319 0.145,-0.498c0.028,-0.194 0.062,-0.409 0.104,-0.644c0.042,-0.235 0.076,-0.505 0.104,-0.81c0.027,-0.318 0.055,-0.664 0.083,-1.038l0.394,-14.905l-0.747,-6.809l-0.312,-5.502l-0.29,-11.356c-0.042,-0.221 -0.077,-0.408 -0.104,-0.56c-0.028,-0.153 -0.062,-0.284 -0.104,-0.395c-0.042,-0.11 -0.083,-0.2 -0.125,-0.27c-0.069,-0.097 -0.159,-0.276 -0.269,-0.54l-2.222,-6.996c-0.055,-0.263 -0.083,-0.45 -0.083,-0.561c0,-0.069 -0.007,-0.145 -0.021,-0.228l-0.145,-0.498c-0.042,-0.083 -0.083,-0.152 -0.125,-0.208c-0.097,-0.166 -0.194,-0.249 -0.291,-0.249l-0.061,0.021c-0.139,0.027 -0.284,0.2 -0.436,0.519c-0.084,0.153 -0.174,0.339 -0.271,0.561Zm-93.4,-101.081c-0.013,-0.332 -0.034,-0.561 -0.062,-0.685l-0.042,-0.063l-0.02,-0.02c-0.028,0 -0.042,0.013 -0.042,0.041c-0.069,0.069 -0.131,0.242 -0.187,0.519l-0.394,4.214l0.041,0.416l0.021,0.083l0.042,0.02l0.02,0.021c0.028,-0.013 0.07,-0.041 0.125,-0.083c0.042,-0.041 0.083,-0.118 0.125,-0.228c0.041,-0.125 0.083,-0.277 0.124,-0.457l0.104,-0.643l0.145,-3.135Zm-6.498,5.48l-0.041,0.021l-0.042,0.062l-0.062,0.146c-0.042,0.083 -0.069,0.187 -0.083,0.311c-0.014,0.111 -0.021,0.229 -0.021,0.353c-0.014,0.111 -0.007,0.228 0.021,0.353c0,0.111 0.014,0.208 0.041,0.291c0.014,0.096 0.042,0.173 0.084,0.228c0.027,0.042 0.062,0.062 0.103,0.062l0.021,-0.02l0,-0.042l0.042,-0.249l0.02,-0.768c-0.013,-0.291 -0.027,-0.492 -0.041,-0.602l-0.021,-0.104l-0.021,-0.042Z" style="fill:#cd1e41;"/></g></g></g><g id="g3"><g id="g5"><path id="path13" d="M338.07,803.985l-5.586,0l0,0.798c-0.832,1.46 -2.911,0.117 -4.788,0c-2.103,-0.132 -5.272,0.744 -6.383,-0.798l-11.969,0c0.146,0.671 -0.31,0.761 -0.798,0.798c-14.567,1.093 -27.812,3.364 -40.694,6.383c-12.378,2.9 -23.524,8.578 -35.109,11.969c-1.103,1.29 -3.795,0.992 -3.191,3.989c-2.956,-0.022 -5.721,1.398 -7.98,2.394c-1.165,0.513 -2.131,1.962 -3.191,2.394c-1.211,0.492 -2.844,0.15 -3.99,0.798c-0.332,0.187 -0.517,1.469 -0.798,1.596c-0.408,0.183 -1.229,-0.245 -1.596,0c-0.295,0.197 -0.539,1.479 -0.798,1.596c-0.376,0.17 -1.28,-0.253 -1.596,0c-1.24,0.99 -1.864,3.094 -3.191,3.989c-0.969,0.653 -2.101,0.268 -3.192,0.798c-1.412,0.687 -2.628,2.194 -4.787,3.192c-0.526,0.242 -1.76,0.388 -2.394,0.798c-1.501,0.969 -2.672,2.828 -3.99,3.989c-0.521,0.459 -1.127,0.35 -1.596,0.798c-0.846,0.811 -3.405,4.243 -5.585,4.788c-2.251,0.562 -5.12,2.014 -7.182,3.99c-0.371,0.355 -2.146,1.529 -3.191,2.393c-1.146,0.947 -2.675,2.337 -3.99,3.192c-0.985,0.64 -2.13,0.215 -3.192,0.798c-0.338,0.186 -0.514,1.468 -0.798,1.596c-0.42,0.19 -1.203,-0.236 -1.595,0c-1.536,0.923 -2.622,2.302 -3.99,3.192c-3.102,2.017 -6.356,3.684 -9.575,5.585c-2.967,1.752 -5.83,3.876 -8.777,5.585c-1.516,0.88 -3.142,2.409 -4.788,3.192c-1.28,0.61 -2.181,0.227 -3.192,0.798c-1.089,0.616 -2.003,1.255 -3.191,2.394c-0.679,0.649 -1.725,0.955 -2.394,1.596c-0.708,0.678 -2.28,0.72 -3.99,1.596c-1.292,0.661 -2.368,1.445 -4.787,2.393c-3.3,1.295 -8.833,2.91 -13.565,4.788c-1.569,0.622 -3.264,1.902 -4.788,2.394c-1.854,0.598 -4.314,1.027 -6.383,1.596c-1.928,0.529 -3.829,1.12 -5.585,1.595c-0.74,0.201 -1.662,-0.221 -2.394,0c-0.745,0.225 -1.33,0.532 -2.394,0.798c-2.601,0.65 -8.561,2.598 -12.767,3.99c-0.73,0.242 -1.936,1.468 -2.394,1.596c-2.585,0.721 -6.093,0.755 -8.777,1.596c-0.423,0.132 -2.089,1.527 -2.394,1.596c-3.049,0.684 -4.91,0.832 -7.979,2.393c-1.414,0.72 -2.655,1.75 -3.989,2.394c-0.971,0.469 -1.576,0.289 -2.394,0.798c-0.462,0.286 -1.183,1.392 -1.596,1.596c-1.548,0.765 -3.44,0.755 -4.788,1.596c-1.5,0.935 -2.41,2.746 -3.989,3.989c-0.655,0.516 -1.049,0.276 -1.596,0.798c-2.735,2.621 -6.81,7.138 -10.373,10.373l0,0.798c6.666,1.045 12.922,-1.126 16.756,-1.596c13.013,-1.593 25.641,2.619 38.301,0.798c0.477,1.421 -2.339,3.314 0,3.99c4.819,-0.298 8.818,0.225 12.767,0.798c2.65,-2.137 5.665,-3.91 8.777,-5.586c-0.131,2.525 2.121,2.667 1.596,5.586c2.26,0.133 3.325,1.462 5.585,1.596c0.383,-0.904 1.722,-0.995 2.394,-1.596c1.681,-1.508 2.446,-2.922 3.99,-3.99c0.873,-0.604 1.946,-1.85 3.191,-1.596c0.157,-0.948 0.9,-0.51 1.596,0c2.653,1.946 1.641,4.334 6.383,3.99c2.109,-0.152 3.808,-2.423 5.586,-3.99c4.321,-3.808 5.714,-6.447 7.979,-1.595c2.099,-0.237 0.628,3.095 3.192,2.393c4.515,-3.729 8.19,-8.3 12.767,-11.969c2.366,2.422 4.609,4.967 7.979,6.384c1.067,-2.779 2.975,-5.028 4.788,-7.182c1.951,-2.319 3.903,-4.596 6.383,-6.383c3.191,0.799 6.201,1.779 8.777,3.192c0.977,-2.854 3.613,-4.118 5.586,-6.384c0.489,-0.562 0.382,-1.85 0.798,-2.393c1.369,-1.791 3.714,-3.443 5.585,-3.99c3.208,-0.549 4.555,0.764 7.181,0.798c2.762,-4.952 7.252,-8.175 11.171,-11.969c4.284,0.77 4.494,5.613 8.778,6.383c1.596,-2.393 2.996,-4.983 5.585,-6.383c4.225,3.854 11.492,-0.638 15.958,-1.596c2.065,4.381 2.52,13.516 9.576,10.373c0.825,3.43 1.444,7.067 2.393,10.373c3.555,2.297 7.717,3.987 10.373,7.182c0.776,6.627 -1.338,10.364 -2.393,15.16c0.916,1.744 2.754,2.565 4.787,3.192c1.533,1.203 3.043,2.615 5.586,3.192c7.135,1.616 22.081,-0.791 26.331,-1.596c1.48,-2.245 2.601,-4.848 3.99,-7.182l-6.384,0c0.357,-4.962 1.556,-9.082 1.596,-14.362c3.19,-0.002 4.789,-1.595 7.98,-1.596c1.091,-2.156 5.985,-3.641 7.181,-4.788c0.68,-0.651 0.662,-0.24 1.596,-0.798c1.668,-0.997 3.751,-3.989 4.787,-3.989c0.515,0 0.909,0.8 0.798,0.798c1.38,0.031 2.041,-0.971 2.394,0c-2.441,3.676 -6.868,5.367 -7.181,11.171c4.181,0.19 6.037,-1.943 9.575,-2.394c1.258,4.48 -5.223,5.375 -2.394,8.777c0.12,-4.667 4.068,-5.507 3.99,-10.373c3.961,-1.624 5.753,-5.418 10.373,-6.383c0.731,3.691 -4.576,5.485 -3.192,7.181c2.933,1.726 8.801,0.586 11.969,0c0.355,5.143 -3.753,5.822 -4.788,9.575c3.348,-2.239 5.38,-5.791 6.384,-10.373c4.112,-2.005 4.961,-7.273 10.373,-7.979c-0.576,6.362 -5.924,11.231 -3.192,18.352c2.843,2.171 9.61,1.128 11.969,1.596c-0.038,2.023 -1.368,2.437 -1.596,3.192c-0.206,0.68 0.305,1.757 0,2.393c-0.806,1.681 -3.654,2.886 -2.394,3.99c6.661,-1.488 16.351,-0.857 23.14,0c4.186,-1.578 5.344,-4.917 9.575,-5.585c2.219,-0.351 3.776,1.17 6.384,1.595c0.901,0.148 1.273,-0.746 1.596,-0.798c1.183,-0.192 1.658,0.691 2.393,0.798c4.964,0.722 6.235,0.308 9.575,-0.798c1.712,-0.566 3.514,-1.047 5.586,-1.595c0.436,1.159 -0.932,4.124 0.798,3.989c0.009,-1.054 1.399,-0.729 1.596,-1.596c0.135,-1.193 -0.285,-2.944 0.798,-3.191c-0.682,1.625 0.695,4.957 1.595,2.393c2.286,-2.359 -1.662,3.1 0.798,3.192c4.722,-0.518 4.882,-12.917 3.192,-15.958c-0.981,-1.765 -2.915,-4.111 -3.99,-4.788c-2.434,-1.533 -4.642,0.559 -6.383,-2.394c-1.533,1.336 -3.747,4.631 -5.585,3.192c0.003,-2.443 -3.199,-5.783 -0.798,-7.979c1.346,2.168 -1.266,3.737 1.595,4.787c1.481,-1.977 -0.265,-7.181 3.99,-6.383c3.615,-1.221 -0.423,5.21 3.192,3.99c-0.454,-2.583 0.242,-4.014 1.596,-4.788c4.236,-0.319 7.759,1.934 11.171,3.192c3.712,1.368 7.45,2.584 11.171,3.989c6.822,2.576 13.583,6.793 22.341,7.182c-0.197,-1.594 1.609,-2.885 1.596,-4.788c-0.018,-2.809 -4.799,-8.1 -6.383,-10.373c-0.685,-0.983 -2.36,-3.327 -2.394,-3.99c-0.084,-1.597 -1.892,-1.662 -2.394,-2.393c-0.711,-1.036 -0.934,-3.034 -1.595,-3.99c-0.253,-0.365 -1.307,-0.413 -1.596,-0.798c-0.505,-0.673 -0.362,-1.789 -0.798,-2.394c-1.148,-1.589 -3.146,-3.116 -3.192,-3.989c-0.083,-1.568 -4.051,-4.751 -4.788,-5.586c-1.86,-2.106 -3.707,-3.531 -5.585,-5.585c-2.879,-3.15 -5.238,-6.853 -7.181,-9.575c-3.842,-5.382 -7.763,-8.585 -11.969,-13.565c-1.484,-1.757 -2.566,-4.032 -3.99,-5.586c-1.722,-1.879 -3.738,-3.089 -5.585,-4.787c-2.397,-2.204 -4.89,-4.559 -6.384,-6.384c-0.218,-0.266 -1.316,0.221 -1.596,0c-1.397,-1.104 -1.963,-3.127 -3.191,-3.191c-0.923,-0.049 -0.355,-0.512 -0.798,-0.798c-2.147,-1.39 -5.381,-5.491 -7.182,-5.586c-0.903,-0.048 -0.377,-0.564 -0.797,-0.798c-3.781,-2.1 -5.559,-5.007 -8.778,-7.181c-0.865,-0.585 -2.125,-1.032 -3.191,-1.596c-1.295,-0.685 -2.116,-1.035 -3.192,-1.596c-3.051,-1.59 -7.153,-3.463 -8.777,-4.787c-2.444,-1.994 -5.093,-3.413 -7.182,-4.788c-1.585,0.011 -1.014,2.178 -3.191,1.596c-4.482,-3.34 -15.21,-3.354 -19.15,-5.585Z" style="fill:#007fff;"/></g></g><path id="path6" d="M216.933,1388.95c-4.415,-0.773 -8.285,-3.258 -12.661,-4.201c-2.553,-0.238 -5.159,-0.238 -7.692,0.219c-6.963,0.087 -13.809,1.765 -20.387,3.938c-4.104,1.566 -7.415,4.736 -9.725,8.417l-0.559,-0.029l0,2.8c0.603,0.073 1.08,0.409 1.444,0.88c1.979,2.315 4.794,3.632 7.05,5.636c4.809,4.099 8.918,8.951 12.715,13.983c2.704,3.691 4.405,7.97 6.588,11.962c1.09,2.042 1.095,4.463 2.052,6.544c1.833,2.067 4.396,3.384 6.064,5.626c2.825,3.676 6.996,6.063 9.607,9.919c1.279,1.619 2.641,3.17 3.948,4.765c3.38,3.992 6.122,8.591 7.693,13.594c1.867,4.693 3.068,9.633 3.85,14.612c0.341,1.76 -0.189,3.559 0.132,5.324c0.617,1.327 2.358,0.846 3.52,0.933c3.141,-0.228 6.238,0.55 9.18,1.566c3.593,1.629 7.298,3.146 10.493,5.504c5.329,4.201 7.765,10.886 12.753,15.403c0.525,0.56 1.157,1.075 1.435,1.814c0.145,1.152 -1.099,1.444 -1.858,1.955c-1.376,0.719 -2.922,1.677 -3.194,3.35c-0.224,1.113 0.71,2.207 1.808,2.309c2.879,-0.53 4.61,-3.724 7.673,-3.607c-0.224,1.614 -0.958,3.082 -1.478,4.609c-1.109,3.836 -0.763,7.867 -1.036,11.805c-0.593,3.253 1.055,6.263 2.247,9.166c2.227,3.666 3.802,7.687 6.238,11.236c0.919,1.094 0.895,3.686 2.835,3.209c4.162,-1.298 8.416,-2.231 12.666,-3.175c3.573,-0.374 7.162,-0.773 10.667,-1.57c5.145,-2.703 9.292,-7.041 12.307,-11.966c0.894,2.052 0.189,4.575 1.668,6.389c0.666,0.885 2.071,0.724 2.63,-0.185c1.371,-1.852 0.53,-4.249 0.739,-6.355c-0.087,-0.885 0.866,-1.259 1.468,-1.653c3.783,-2.032 7.79,-3.583 11.655,-5.436c3.856,-1.789 8.076,-2.543 12.01,-4.123c3.272,-1.585 7.079,-1.678 10.605,-1.026c4.463,0.355 8.421,3.068 11.081,6.559c0.68,0.793 1.371,1.916 2.586,1.692c1.357,-0.87 2.115,-2.411 3.482,-3.277c5.295,-2.946 11.124,-5.757 17.372,-5.027c9.555,1.434 18.059,6.35 27.18,9.257c2.626,0.593 4.357,-2.047 6.37,-3.257c4.731,-2.84 10.147,-4.479 15.627,-5.086c3.515,-0.803 7.05,0.267 10.58,0.286c2.286,0.652 4.546,1.401 6.856,1.97c1.707,0.403 3.428,1.736 5.212,0.953c2.222,-0.968 2.913,-3.657 2.981,-5.869c-0.029,-2.47 0.296,-5.042 -0.584,-7.41c-2.479,-7.746 -6.102,-15.219 -11.372,-21.462c-2.193,-3.457 -5.893,-5.426 -8.748,-8.246c-4.667,-4.099 -9.17,-8.431 -14.256,-12.025c-5.99,-3.671 -12.175,-7.03 -18.452,-10.201c-4.04,-2.051 -8.3,-3.598 -12.364,-5.586c-4.678,-1.649 -9.273,-3.506 -13.95,-5.149c-2.101,-0.915 -1.221,-3.842 -0.214,-5.315c-0.146,-0.224 -0.428,-0.681 -0.574,-0.909c-0.19,0.078 -0.574,0.243 -0.763,0.321c-0.472,1.371 -0.866,2.825 -1.867,3.924c-0.934,1.317 -2.782,0.442 -4.021,1.235c-1.965,0.865 -2.689,3.014 -3.365,4.876c-0.929,1.274 -1.819,2.558 -2.363,4.056c-3.17,4.128 -7.794,6.831 -11.052,10.881c-1.318,1.692 -2.825,3.37 -4.799,4.274c0.418,-3.734 1.964,-7.327 1.716,-11.139c-0.18,-4.731 0.608,-9.438 0.292,-14.164c-0.175,-2.168 -1.658,-3.924 -1.925,-6.063c-0.472,-0.005 -0.939,-0.01 -1.41,-0.01c-1.649,1.712 -2.553,3.953 -3.817,5.937c-2.213,3.316 -3.647,7.152 -6.404,10.099c-1.308,2.509 -3.34,4.531 -4.6,7.065c-0.398,0.7 -1.278,0.734 -1.964,0.967c-0.792,0.958 -1.609,1.896 -2.446,2.815c-0.252,-0.053 -0.763,-0.16 -1.021,-0.213c-0.068,-2.067 -1.006,-3.929 -1.434,-5.913c-0.156,-2.966 -1.041,-5.815 -1.673,-8.699c-1.249,-3.218 -2.815,-6.33 -4.653,-9.252c-1.512,-2.49 -2.723,-5.29 -5.022,-7.177c-0.934,-0.87 -2.412,-0.72 -3.399,-0.019c-1.678,0.846 -2.169,2.786 -3.229,4.196c-3.238,5.178 -4.911,11.387 -4.633,17.489c-0.205,4.06 0.996,8.071 0.398,12.127c-0.549,0.884 -1.638,0.641 -2.513,0.753c-1.765,0.034 -3.453,1.405 -5.227,0.647c-2.29,-0.715 -3.02,-3.243 -4.09,-5.125c-1.307,-3.092 -3.141,-5.917 -4.614,-8.922c-0.86,-2.217 -1.585,-4.483 -2.431,-6.705c-0.316,-2.621 -1.692,-4.921 -2.577,-7.371c-1.215,-3.292 -2.567,-6.53 -3.807,-9.812c-1.653,-3.769 -2.757,-7.751 -4.585,-11.436c-0.929,-2.076 -2.023,-4.162 -2.193,-6.467c-0.126,-1.342 1.065,-2.246 1.609,-3.36c-0.175,-0.331 -0.53,-0.987 -0.705,-1.318c-1.351,0.083 -2.718,1.138 -4.05,0.453c-2.796,-1.425 -4.872,-3.866 -7.298,-5.801c-2.295,-1.775 -4.036,-4.162 -6.413,-5.835c-3.161,-2.343 -6.229,-4.799 -9.326,-7.23c-1.823,-1.473 -3.943,-2.518 -5.825,-3.919c-2.276,-1.677 -4.857,-2.864 -7.191,-4.449c-3.229,-2.071 -6.73,-3.69 -10.44,-4.702c-3.495,-1.453 -7.361,-1.541 -10.833,-3.053Z" style="fill:#903bcf;fill-rule:nonzero;"/><g transform="matrix(1,0,0,1,-794.091,241)"><text x="1015.27px" y="247.993px" style="font-family:'Helvetica-Bold', 'Helvetica';font-weight:700;font-size:50px;">Human</text><text x="936.023px" y="347.993px" style="font-family:'Helvetica-Oblique', 'Helvetica';font-style:italic;font-size:50px;">Homo Sapiens</text></g><g transform="matrix(1,0,0,1,-826.455,1375.01)"><text x="1079.72px" y="247.993px" style="font-family:'Helvetica-Bold', 'Helvetica';font-weight:700;font-size:50px;">Bat</text><text x="905.986px" y="347.993px" style="font-family:'Helvetica-Oblique', 'Helvetica';font-style:italic;font-size:50px;">Rhinolophus Afnis</text></g><g transform="matrix(1,0,0,1,-814.091,775)"><text x="994.446px" y="247.993px" style="font-family:'Helvetica-Bold', 'Helvetica';font-weight:700;font-size:50px;">Pangolin</text><text x="927.698px" y="347.993px" style="font-family:'Helvetica-Oblique', 'Helvetica';font-style:italic;font-size:50px;">Manis Javanica</text></g></g></svg>